# Blender v2.91.0 OBJ File: 'Знак№1blend.blend'
# www.blender.org
mtllib Road_sign.mtl
o Plane
v -1.000000 7.870376 -0.021467
v -0.933278 7.803654 -0.021467
v -0.980458 7.823196 -0.021467
v 0.933278 7.803654 -0.021467
v 1.000000 7.870376 -0.021467
v 0.980458 7.823196 -0.021467
v -0.933278 9.803654 -0.021467
v -1.000000 9.736932 -0.021467
v -0.980458 9.784110 -0.021467
v 1.000000 9.736932 -0.021467
v 0.933278 9.803654 -0.021467
v 0.980458 9.784110 -0.021467
v -1.000000 9.736932 -0.046904
v -0.933278 9.803654 -0.046904
v -0.980458 9.784110 -0.046904
v -0.933278 7.803654 -0.046904
v -1.000000 7.870376 -0.046904
v -0.980458 7.823196 -0.046904
v 1.000000 7.870376 -0.046904
v 0.933278 7.803654 -0.046904
v 0.980458 7.823196 -0.046904
v 0.933278 9.803654 -0.046904
v 1.000000 9.736932 -0.046904
v 0.980458 9.784110 -0.046904
vt 0.939565 0.673295
vt 0.936720 0.673285
vt 0.936679 0.510242
vt 0.939525 0.510252
vt 0.939567 0.324357
vt 0.936721 0.324347
vt 0.936679 0.161303
vt 0.939525 0.161313
vt 0.154356 0.053819
vt 0.167887 0.021659
vt 0.192279 0.004656
vt 0.807530 0.003095
vt 0.836581 0.021626
vt 0.847722 0.054256
vt 0.847736 0.942417
vt 0.839299 0.973408
vt 0.813907 0.995142
vt 0.193133 0.995194
vt 0.166860 0.978148
vt 0.153568 0.944599
vt 0.112207 0.373465
vt 0.114089 0.375113
vt 0.114835 0.379008
vt 0.113183 0.532438
vt 0.112355 0.536298
vt 0.110437 0.537863
vt 0.035256 0.536212
vt 0.033373 0.534564
vt 0.032628 0.530668
vt 0.034280 0.377239
vt 0.035108 0.373378
vt 0.037026 0.371813
vt 0.939566 0.498826
vt 0.936720 0.498816
vt 0.936680 0.335773
vt 0.939526 0.335783
vt 0.936701 0.330060
vt 0.939546 0.330070
vt 0.939546 0.504539
vt 0.936700 0.504529
vt 0.939524 0.684722
vt 0.936679 0.684711
vt 0.936699 0.678998
vt 0.939545 0.679008
vt 0.936721 0.847758
vt 0.939567 0.847768
vt 0.939546 0.853481
vt 0.936701 0.853471
vt 0.936700 0.155590
vt 0.939546 0.155600
vn 0.0000 -1.0000 0.0000
vn 0.0000 1.0000 0.0000
vn 0.0000 -0.0000 1.0000
vn -0.0000 0.0000 -1.0000
vn 1.0000 0.0000 0.0000
vn 0.9239 0.3827 0.0000
vn 0.3827 0.9239 0.0000
vn 0.9239 -0.3827 0.0000
vn 0.3827 -0.9239 0.0000
vn -0.9239 -0.3827 0.0000
vn -0.3827 -0.9239 0.0000
vn -0.9239 0.3827 0.0000
vn -0.3827 0.9239 0.0000
vn -1.0000 0.0000 0.0000
usemtl Material.001
s off
f 2/1/1 16/2/1 20/3/1 4/4/1
f 11/5/2 22/6/2 14/7/2 7/8/2
f 1/9/3 3/10/3 2/11/3 4/12/3 6/13/3 5/14/3 10/15/3 12/16/3 11/17/3 7/18/3 9/19/3 8/20/3
f 16/21/4 18/22/4 17/23/4 13/24/4 15/25/4 14/26/4 22/27/4 24/28/4 23/29/4 19/30/4 21/31/4 20/32/4
f 5/33/5 19/34/5 23/35/5 10/36/5
f 10/36/6 23/35/6 24/37/6 12/38/6
f 12/38/7 24/37/7 22/6/7 11/5/7
f 19/34/8 5/33/8 6/39/8 21/40/8
f 21/40/9 6/39/9 4/4/9 20/3/9
f 1/41/10 17/42/10 18/43/10 3/44/10
f 3/44/11 18/43/11 16/2/11 2/1/11
f 13/45/12 8/46/12 9/47/12 15/48/12
f 15/49/13 9/50/13 7/8/13 14/7/13
f 8/46/14 13/45/14 17/42/14 1/41/14
o Circle
v -0.000000 0.062278 -0.177078
v -0.031917 0.062278 -0.168526
v -0.055281 0.062278 -0.145161
v -0.063833 0.062278 -0.113245
v -0.055281 0.062278 -0.081328
v -0.031917 0.062278 -0.057964
v -0.000000 0.062278 -0.057964
v 0.031916 0.062278 -0.057964
v 0.055281 0.062278 -0.081328
v 0.063833 0.062278 -0.113245
v 0.055281 0.062278 -0.145161
v 0.031917 0.062278 -0.168526
v -0.000000 9.048118 -0.177078
v -0.031917 9.048118 -0.168526
v -0.055281 9.048118 -0.145161
v -0.063833 9.048118 -0.113245
v -0.055281 9.048118 -0.081328
v -0.031917 9.048118 -0.057964
v -0.000000 9.048118 -0.057964
v 0.031916 9.048118 -0.057964
v 0.055281 9.048118 -0.081328
v 0.063833 9.048118 -0.113245
v 0.055281 9.048118 -0.145161
v 0.031917 9.048118 -0.168526
v -0.031917 7.967742 -0.168526
v -0.055281 7.967742 -0.145161
v 0.055281 7.967742 -0.081328
v 0.063833 7.967742 -0.113245
v -0.031917 7.967742 -0.057964
v -0.000000 7.967742 -0.057964
v -0.063833 7.967742 -0.113245
v 0.055281 7.967742 -0.145161
v 0.031916 7.967742 -0.057964
v -0.055281 7.967742 -0.081328
v 0.031917 7.967742 -0.168526
v -0.000000 7.967742 -0.177078
v -0.031917 8.082332 -0.168526
v 0.055281 8.082332 -0.081328
v -0.031917 8.082332 -0.057964
v -0.000000 8.082332 -0.177078
v -0.055281 8.082332 -0.145161
v 0.063833 8.082332 -0.113245
v -0.063833 8.082332 -0.113245
v 0.055281 8.082332 -0.145161
v 0.031916 8.082332 -0.057964
v -0.055281 8.082332 -0.081328
v 0.031917 8.082332 -0.168526
v -0.031917 8.949647 -0.168526
v 0.055281 8.949647 -0.081328
v -0.031917 8.949647 -0.057964
v -0.000000 8.949647 -0.177078
v -0.055281 8.949647 -0.145161
v 0.063833 8.949647 -0.113245
v -0.063833 8.949647 -0.113245
v 0.055281 8.949647 -0.145161
v 0.031916 8.949647 -0.057964
v -0.055281 8.949647 -0.081328
v 0.031917 8.949647 -0.168526
v -0.038657 9.048118 -0.180051
v -0.000000 9.048118 -0.190409
v -0.066956 9.048118 -0.151751
v -0.077315 9.048118 -0.113094
v -0.066956 9.048118 -0.074437
v -0.038657 9.048118 -0.046138
v -0.000000 9.048118 -0.046138
v 0.038657 9.048118 -0.046138
v 0.066956 9.048118 -0.074437
v 0.077315 9.048118 -0.113094
v 0.066956 9.048118 -0.151751
v 0.038657 9.048118 -0.180051
v -0.038657 8.949647 -0.180051
v 0.066956 8.949647 -0.074437
v -0.038657 8.949647 -0.046138
v -0.000000 8.949647 -0.190409
v -0.066956 8.949647 -0.151751
v 0.077315 8.949647 -0.113094
v -0.077315 8.949647 -0.113094
v 0.066956 8.949647 -0.151751
v 0.038657 8.949647 -0.046138
v -0.066956 8.949647 -0.074437
v 0.038657 8.949647 -0.180051
v -0.069571 8.082332 -0.153227
v -0.069571 7.967742 -0.153227
v 0.080334 8.082332 -0.113060
v 0.080334 7.967742 -0.113060
v -0.000000 7.967742 -0.043490
v -0.080334 8.082332 -0.113060
v -0.080334 7.967742 -0.113060
v 0.069571 8.082332 -0.153227
v 0.069571 7.967742 -0.153227
v 0.040167 8.082332 -0.043490
v 0.040167 7.967742 -0.043490
v -0.069571 8.082332 -0.072894
v -0.069571 7.967742 -0.072894
v 0.040167 8.082332 -0.182631
v 0.040167 7.967742 -0.182631
v -0.000000 7.967742 -0.193394
v -0.040167 7.967742 -0.043490
v 0.069571 7.967742 -0.072894
v -0.040167 7.967742 -0.182631
v -0.040167 8.082332 -0.182631
v 0.069571 8.082332 -0.072894
v -0.040167 8.082332 -0.043490
v -0.000000 8.082332 -0.193394
vt 0.000000 0.000000
vt 0.000000 0.000000
vt 0.000000 0.000000
vt 0.000000 0.000000
vt 0.000000 0.000000
vt 0.000000 0.000000
vt 0.000000 0.000000
vt 0.000000 0.000000
vt 0.000000 0.000000
vt 0.000000 0.000000
vt 0.000000 0.000000
vt 0.000000 0.000000
vt 0.000000 0.000000
vt 0.000000 0.000000
vt 0.000000 0.000000
vt 0.000000 0.000000
vt 0.000000 0.000000
vt 0.000000 0.000000
vt 0.000000 0.000000
vt 0.000000 0.000000
vt 0.000000 0.000000
vt 0.000000 0.000000
vt 0.000000 0.000000
vt 0.000000 0.000000
vt 0.000000 0.000000
vt 0.000000 0.000000
vt 0.000000 0.000000
vt 0.000000 0.000000
vt 0.000000 0.000000
vt 0.000000 0.000000
vt 0.000000 0.000000
vt 0.000000 0.000000
vt 0.000000 0.000000
vt 0.000000 0.000000
vt 0.000000 0.000000
vt 0.000000 0.000000
vt 0.000000 0.000000
vt 0.000000 0.000000
vt 0.000000 0.000000
vt 0.000000 0.000000
vt 0.000000 0.000000
vt 0.000000 0.000000
vt 0.000000 0.000000
vt 0.000000 0.000000
vt 0.000000 0.000000
vt 0.000000 0.000000
vt 0.000000 0.000000
vt 0.000000 0.000000
vt 0.000000 0.000000
vt 0.000000 0.000000
vt 0.000000 0.000000
vt 0.000000 0.000000
vt 0.000000 0.000000
vt 0.000000 0.000000
vt 0.000000 0.000000
vt 0.000000 0.000000
vt 0.000000 0.000000
vt 0.000000 0.000000
vt 0.000000 0.000000
vt 0.000000 0.000000
vt 0.000000 0.000000
vt 0.000000 0.000000
vt 0.000000 0.000000
vt 0.000000 0.000000
vt 0.000000 0.000000
vt 0.000000 0.000000
vt 0.000000 0.000000
vt 0.000000 0.000000
vt 0.000000 0.000000
vt 0.000000 0.000000
vt 0.000000 0.000000
vt 0.000000 0.000000
vt 0.000000 0.000000
vt 0.000000 0.000000
vt 0.000000 0.000000
vt 0.000000 0.000000
vt 0.000000 0.000000
vt 0.000000 0.000000
vt 0.000000 0.000000
vt 0.000000 0.000000
vt 0.000000 0.000000
vt 0.000000 0.000000
vt 0.000000 0.000000
vt 0.000000 0.000000
vt 0.000000 0.000000
vt 0.000000 0.000000
vt 0.000000 0.000000
vt 0.000000 0.000000
vt 0.000000 0.000000
vt 0.000000 0.000000
vt 0.000000 0.000000
vt 0.000000 0.000000
vt 0.000000 0.000000
vt 0.000000 0.000000
vt 0.000000 0.000000
vt 0.000000 0.000000
vt 0.000000 0.000000
vt 0.000000 0.000000
vt 0.000000 0.000000
vt 0.000000 0.000000
vt 0.000000 0.000000
vt 0.000000 0.000000
vt 0.000000 0.000000
vt 0.000000 0.000000
vn 0.0000 1.0000 0.0000
vn 0.0000 -1.0000 -0.0000
vn 0.0000 1.0000 -0.0001
vn -0.0000 0.0000 -1.0000
vn 0.5000 0.0000 -0.8660
vn -0.3827 -0.0000 0.9239
vn -0.8660 -0.0000 0.5000
vn 0.8660 0.0000 0.5000
vn 0.3827 0.0000 0.9239
vn -0.5000 0.0000 -0.8660
vn 0.8660 0.0000 -0.5000
vn -1.0000 0.0000 0.0000
vn -0.0000 -0.0000 1.0000
vn 1.0000 0.0000 0.0000
vn -0.8660 0.0000 -0.5000
vn 0.0000 1.0000 0.0001
vn -0.7071 0.0000 0.7071
vn 0.7071 0.0000 0.7071
usemtl Material.004
s 1
f 40/51/15 86/52/15 87/53/15 41/54/15
f 47/55/15 93/56/15 94/57/15 48/58/15
f 75/59/16 98/60/16 105/61/16 82/62/16
f 79/63/16 102/64/16 100/65/16 77/66/16
f 39/67/15 85/68/15 86/52/15 40/51/15
f 46/69/15 92/70/15 93/56/15 47/55/15
f 38/71/15 83/72/15 85/68/15 39/67/15
f 45/73/15 91/74/15 92/70/15 46/69/15
f 81/75/16 104/76/16 101/77/16 78/78/16
f 37/79/15 84/80/15 83/72/15 38/71/15
f 44/81/15 90/82/17 91/74/15 45/73/15
f 38/71/15 39/67/15 40/51/15 41/54/15 42/83/15 43/84/15 44/81/15 45/73/15 46/69/15 47/55/15 48/58/15 37/79/15
f 25/85/18 60/86/18 59/87/19 36/88/19
f 30/89/20 53/90/20 58/91/21 29/92/21
f 33/93/22 51/94/22 57/95/23 32/96/23
f 26/97/24 49/98/24 60/86/18 25/85/18
f 36/88/19 59/87/19 56/99/25 35/100/25
f 29/92/21 58/91/21 55/101/26 28/102/26
f 32/96/23 57/95/23 54/103/27 31/104/27
f 35/100/25 56/99/25 52/105/28 34/106/28
f 28/102/26 55/101/26 50/107/29 27/108/29
f 31/104/27 54/103/27 53/90/20 30/89/20
f 34/106/28 52/105/28 51/94/22 33/93/22
f 27/108/29 50/107/29 49/98/24 26/97/24
f 50/107/16 107/109/16 124/110/16 49/98/16
f 49/98/16 124/110/16 121/111/16 60/86/16
f 70/112/15 117/113/15 127/114/15 63/115/15
f 52/105/16 109/116/16 123/117/16 51/94/16
f 65/118/15 106/119/15 111/120/15 67/121/15
f 51/94/16 123/117/16 116/122/16 57/95/16
f 71/123/15 119/124/15 128/125/30 64/126/30
f 54/103/16 110/127/16 122/128/16 53/90/16
f 66/129/15 108/130/15 113/131/15 68/132/15
f 53/90/16 122/128/16 118/133/16 58/91/16
f 55/101/16 112/134/16 107/109/16 50/107/16
f 64/126/18 75/59/18 82/62/19 71/123/19
f 63/115/31 74/135/31 81/75/21 70/112/21
f 62/136/22 73/137/22 80/138/32 69/139/32
f 61/140/24 72/141/24 75/59/18 64/126/18
f 71/123/19 82/62/19 79/63/25 68/132/25
f 70/112/21 81/75/21 78/78/26 67/121/26
f 68/132/25 79/63/25 77/66/28 66/129/28
f 67/121/26 78/78/26 76/142/29 65/118/29
f 66/129/28 77/66/28 73/137/22 62/136/22
f 65/118/29 76/142/29 72/141/24 61/140/24
f 99/143/29 85/68/29 83/72/24 95/144/24
f 100/65/28 92/70/28 91/74/22 96/145/22
f 101/77/26 86/52/26 85/68/29 99/143/29
f 102/64/25 93/56/25 92/70/28 100/65/28
f 104/76/21 87/53/21 86/52/26 101/77/26
f 105/61/19 94/57/19 93/56/25 102/64/25
f 95/144/24 83/72/24 84/80/18 98/60/18
f 96/145/22 91/74/22 90/82/32 103/146/32
f 97/147/31 88/148/31 87/53/21 104/76/21
f 98/60/18 84/80/18 94/57/19 105/61/19
f 78/78/16 101/77/16 99/143/16 76/142/16
f 74/135/16 97/147/16 104/76/16 81/75/16
f 48/58/15 94/57/15 84/80/15 37/79/15
f 41/54/15 87/53/15 88/148/15 42/83/15
f 73/137/16 96/145/16 103/146/16 80/138/16
f 42/83/15 88/148/15 89/149/15 43/84/15
f 77/66/16 100/65/16 96/145/16 73/137/16
f 72/141/16 95/144/16 98/60/16 75/59/16
f 43/84/15 89/149/15 90/82/17 44/81/15
f 76/142/16 99/143/16 95/144/16 72/141/16
f 82/62/16 105/61/16 102/64/16 79/63/16
f 121/111/18 128/125/18 119/124/19 120/150/19
f 122/128/31 127/114/31 117/113/21 118/133/21
f 123/117/22 126/151/22 115/152/32 116/122/32
f 124/110/24 125/153/24 128/125/18 121/111/18
f 120/150/19 119/124/19 113/131/25 114/154/25
f 118/133/21 117/113/21 111/120/26 112/134/26
f 114/154/25 113/131/25 108/130/28 109/116/28
f 112/134/26 111/120/26 106/119/29 107/109/29
f 109/116/28 108/130/28 126/151/22 123/117/22
f 107/109/29 106/119/29 125/153/24 124/110/24
f 69/139/15 115/152/15 126/151/15 62/136/15
f 59/87/16 120/150/16 114/154/16 56/99/16
f 62/136/15 126/151/15 108/130/15 66/129/15
f 64/126/30 128/125/30 125/153/15 61/140/15
f 58/91/16 118/133/16 112/134/16 55/101/16
f 61/140/15 125/153/15 106/119/15 65/118/15
f 68/132/15 113/131/15 119/124/15 71/123/15
f 57/95/16 116/122/16 110/127/16 54/103/16
f 67/121/15 111/120/15 117/113/15 70/112/15
f 56/99/16 114/154/16 109/116/16 52/105/16
f 60/86/16 121/111/16 120/150/16 59/87/16
o Plane.001_Plane.002
v -0.792681 0.000000 0.678172
v 0.792681 0.000000 0.678172
v -0.792681 0.000000 -0.907190
v 0.792681 0.000000 -0.907190
v 0.000000 0.283918 -0.193449
v -0.055819 0.283918 -0.170328
v -0.078940 0.283918 -0.114509
v -0.055819 0.283918 -0.058690
v 0.000000 0.283918 -0.035569
v 0.055819 0.283918 -0.058690
v 0.078940 0.283918 -0.114509
v 0.055819 0.283918 -0.170328
v -0.525366 0.339048 0.410857
v -0.457009 0.373902 0.342500
v 0.525366 0.339048 0.410857
v 0.457009 0.373902 0.342500
v -0.525366 0.339048 -0.639875
v -0.457009 0.373902 -0.571518
v 0.525366 0.339048 -0.639875
v 0.457009 0.373902 -0.571518
v -0.457520 0.374686 -0.114509
v -0.525366 0.339048 -0.114509
v 0.000000 0.374686 0.343011
v 0.000000 0.339048 0.410857
v 0.457520 0.374686 -0.114509
v 0.525366 0.339048 -0.114509
v 0.000000 0.374686 -0.572029
v 0.000000 0.339048 -0.639875
v 0.000000 0.489950 -0.193449
v 0.000000 0.497697 -0.207557
v -0.066239 0.499234 -0.180748
v -0.055819 0.489950 -0.170328
v -0.093048 0.497697 -0.114509
v -0.078940 0.489950 -0.114509
v -0.066239 0.499234 -0.048270
v -0.055819 0.489950 -0.058690
v 0.000000 0.497697 -0.021461
v 0.000000 0.489950 -0.035569
v 0.066239 0.499234 -0.048270
v 0.055819 0.489950 -0.058690
v 0.093048 0.497697 -0.114509
v 0.078940 0.489950 -0.114509
v 0.066239 0.499234 -0.180748
v 0.055819 0.489950 -0.170328
vt 0.000000 0.000000
vt 0.000000 0.000000
vt 0.000000 0.000000
vt 0.000000 0.000000
vt 0.000000 0.000000
vt 1.000000 0.000000
vt 1.000000 0.000000
vt 0.500000 0.000000
vt 0.000000 0.000000
vt 0.000000 0.000000
vt 0.000000 0.029796
vt 0.000000 0.437229
vt 0.000000 0.000000
vt 0.000000 0.000000
vt 0.000000 0.000000
vt 0.000000 0.000000
vt 0.000000 0.000000
vt 1.000000 1.000000
vt 0.000000 1.000000
vt 0.000000 1.000000
vt 0.500000 1.000000
vt 1.000000 1.000000
vt 0.000000 0.000000
vt 0.000000 0.000000
vt 0.000000 0.000000
vt 0.000000 0.000000
vt 0.000000 0.000000
vt 0.000000 0.000000
vt 1.000000 0.500000
vt 0.000000 0.500000
vt 0.040096 0.040096
vt 0.059591 0.029796
vt 0.874459 0.437229
vt 0.884402 0.884402
vt 0.040096 0.000000
vt 0.029796 0.000000
vt 0.437229 0.000000
vt 0.884402 0.000000
vt 0.000000 0.000000
vt 0.000000 0.000000
vt 0.029796 0.059591
vt 0.437230 0.874459
vt 0.000000 0.040096
vt 0.000000 0.884402
vn -0.9239 0.0000 0.3827
vn 0.0000 0.6191 0.7853
vn -0.3055 0.9521 0.0146
vn -0.3827 0.0000 -0.9239
vn 0.0000 0.6191 -0.7853
vn -0.3827 0.0000 0.9239
vn 0.9239 0.0000 0.3827
vn 0.7853 0.6191 -0.0000
vn -0.9239 0.0000 -0.3827
vn -0.7853 0.6191 -0.0000
vn 0.3055 0.9521 -0.0146
vn 0.0146 0.9521 0.3055
vn 0.3827 0.0000 -0.9239
vn 0.0146 0.9521 -0.3055
vn -0.0146 0.9521 -0.3055
vn 0.3055 0.9521 0.0146
vn -0.0146 0.9521 0.3055
vn -0.3055 0.9521 -0.0146
vn -0.4593 0.8883 0.0009
vn 0.0009 0.8883 0.4593
vn 0.4593 0.8883 -0.0009
vn -0.0009 0.8883 -0.4593
vn -0.4593 0.8883 -0.0009
vn -0.0009 0.8883 0.4593
vn 0.4593 0.8883 0.0009
vn 0.0009 0.8883 -0.4593
vn 0.9239 0.0000 -0.3827
vn 0.2129 0.8426 0.4946
vn 0.4946 0.8426 0.2129
vn 0.4946 0.8426 -0.2129
vn 0.2129 0.8426 -0.4946
vn -0.2129 0.8426 -0.4946
vn -0.4946 0.8426 -0.2129
vn -0.4946 0.8426 0.2129
vn -0.2129 0.8426 0.4946
vn 0.3827 0.0000 0.9239
usemtl Material.003
s off
f 170/155/33 172/156/33 140/157/33 139/158/33
f 129/159/34 130/160/34 143/161/34 152/162/34 141/163/34
f 163/164/35 161/165/35 149/166/35 142/167/35
f 166/168/36 168/169/36 138/170/36 137/171/36
f 132/172/37 131/173/37 145/174/37 156/175/37 147/176/37
f 172/156/38 157/177/38 133/178/38 140/157/38
f 160/179/39 162/180/39 135/181/39 134/182/39
f 130/160/40 132/172/40 147/176/40 154/183/40 143/161/40
f 168/169/41 170/155/41 139/158/41 138/170/41
f 131/173/42 129/159/42 141/163/42 150/184/42 145/174/42
f 171/185/43 169/186/43 153/187/43 148/188/43
f 167/189/44 165/190/44 151/191/44 144/192/44
f 164/193/45 166/168/45 137/171/45 136/194/45
f 158/195/46 171/185/46 148/188/46 155/196/46
f 159/197/47 158/195/47 155/196/47 146/198/47
f 169/186/48 167/189/48 144/192/48 153/187/48
f 165/190/49 163/164/49 142/167/49 151/191/49
f 161/165/50 159/197/50 146/198/50 149/166/50
f 150/184/51 141/163/51 142/167/51 149/166/51
f 152/162/52 143/161/52 144/192/52 151/191/52
f 154/183/53 147/176/53 148/188/53 153/187/53
f 156/175/54 145/174/54 146/198/54 155/196/54
f 145/174/55 150/184/55 149/166/55 146/198/55
f 141/163/56 152/162/56 151/191/56 142/167/56
f 143/161/57 154/183/57 153/187/57 144/192/57
f 147/176/58 156/175/58 155/196/58 148/188/58
f 162/180/59 164/193/59 136/194/59 135/181/59
f 160/179/60 157/177/60 158/195/60 159/197/60
f 162/180/61 160/179/61 159/197/61 161/165/61
f 164/193/62 162/180/62 161/165/62 163/164/62
f 166/168/63 164/193/63 163/164/63 165/190/63
f 168/169/64 166/168/64 165/190/64 167/189/64
f 170/155/65 168/169/65 167/189/65 169/186/65
f 172/156/66 170/155/66 169/186/66 171/185/66
f 157/177/67 172/156/67 171/185/67 158/195/67
f 157/177/68 160/179/68 134/182/68 133/178/68
o Plane.002_Plane.001
v -40.000000 0.000000 27.549133
v 40.000000 0.000000 27.549133
v -40.000000 21.822233 -29.654167
v 40.000000 21.822233 -29.654167
v -40.000000 0.000000 -20.879261
v -40.000000 8.774907 -29.654167
v -40.000000 0.220006 -22.831860
v -40.000000 0.868989 -24.686550
v -40.000000 1.914408 -26.350327
v -40.000000 3.303842 -27.739761
v -40.000000 4.967618 -28.785179
v -40.000000 6.822307 -29.434162
v 40.000000 8.774906 -29.654167
v 40.000000 0.000000 -20.879261
v 40.000000 6.822306 -29.434162
v 40.000000 4.967618 -28.785179
v 40.000000 3.303842 -27.739761
v 40.000000 1.914408 -26.350327
v 40.000000 0.868989 -24.686550
v 40.000000 0.220006 -22.831860
vt 0.999902 0.163156
vt 0.000098 0.163162
vt 0.000097 0.000102
vt 0.999901 0.000097
vt 0.999903 0.187714
vt 0.000098 0.187718
vt 0.999903 0.212271
vt 0.000098 0.212274
vt 0.999903 0.236828
vt 0.000098 0.236830
vt 0.999903 0.261385
vt 0.000098 0.261386
vt 0.999903 0.285942
vt 0.000099 0.285942
vt 0.999903 0.310500
vt 0.000099 0.310498
vt 0.999903 0.335057
vt 0.000099 0.335054
vt 0.999901 0.940293
vt 0.000097 0.940291
vn 0.0000 0.0561 0.9984
vn 0.0000 0.0000 1.0000
vn 0.0000 0.2225 0.9749
vn 0.0000 0.4339 0.9010
vn 0.0000 0.6235 0.7818
vn 0.0000 0.7818 0.6235
vn 0.0000 0.9010 0.4339
vn 0.0000 0.9749 0.2225
vn 0.0000 0.9984 0.0561
vn 0.0000 1.0000 0.0000
usemtl Material.004
s 1
f 178/199/69 185/200/69 176/201/70 175/202/70
f 185/200/69 178/199/69 184/203/71 187/204/71
f 187/204/71 184/203/71 183/205/72 188/206/72
f 188/206/72 183/205/72 182/207/73 189/208/73
f 189/208/73 182/207/73 181/209/74 190/210/74
f 190/210/74 181/209/74 180/211/75 191/212/75
f 191/212/75 180/211/75 179/213/76 192/214/76
f 192/214/76 179/213/76 177/215/77 186/216/77
f 173/217/78 174/218/78 186/216/77 177/215/77
